<svg width="66" height="54" viewBox="0 0 66 54" fill="none" xmlns="http://www.w3.org/2000/svg">
<path d="M62.2188 0.4375H3.78125C2.79531 0.43859 1.85007 0.830736 1.1529 1.5279C0.455736 2.22507 0.0635898 3.17031 0.0625 4.15625V41.3438C0.0635898 42.3297 0.455736 43.2749 1.1529 43.9721C1.85007 44.6693 2.79531 45.0614 3.78125 45.0625H25.0552L23.7802 48.25H18.125C17.8432 48.25 17.573 48.3619 17.3737 48.5612C17.1744 48.7605 17.0625 49.0307 17.0625 49.3125V51.4375H10.6875C10.4057 51.4375 10.1355 51.5494 9.9362 51.7487C9.73694 51.948 9.625 52.2182 9.625 52.5C9.625 52.7818 9.73694 53.052 9.9362 53.2513C10.1355 53.4506 10.4057 53.5625 10.6875 53.5625H55.3125C55.5943 53.5625 55.8645 53.4506 56.0638 53.2513C56.2631 53.052 56.375 52.7818 56.375 52.5C56.375 52.2182 56.2631 51.948 56.0638 51.7487C55.8645 51.5494 55.5943 51.4375 55.3125 51.4375H48.9375V49.3125C48.9375 49.0307 48.8256 48.7605 48.6263 48.5612C48.427 48.3619 48.1568 48.25 47.875 48.25H42.2198L40.9448 45.0625H62.2188C63.2047 45.0614 64.1499 44.6693 64.8471 43.9721C65.5443 43.2749 65.9364 42.3297 65.9375 41.3438V4.15625C65.9364 3.17031 65.5443 2.22507 64.8471 1.5279C64.1499 0.830736 63.2047 0.43859 62.2188 0.4375ZM46.8125 50.375V51.4375H19.1875V50.375H46.8125ZM26.0698 48.25L27.3448 45.0625H38.6552L39.9302 48.25H26.0698ZM63.8125 41.3438C63.8121 41.7663 63.6441 42.1715 63.3453 42.4703C63.0465 42.7691 62.6413 42.9371 62.2188 42.9375H3.78125C3.35867 42.9371 2.9535 42.7691 2.65469 42.4703C2.35588 42.1715 2.18785 41.7663 2.1875 41.3438V38.6875H63.8125V41.3438ZM63.8125 36.5625H2.1875V4.15625C2.18785 3.73367 2.35588 3.3285 2.65469 3.02969C2.9535 2.73088 3.35867 2.56285 3.78125 2.5625H62.2188C62.6413 2.56285 63.0465 2.73088 63.3453 3.02969C63.6441 3.3285 63.8121 3.73367 63.8125 4.15625V36.5625Z" fill="#FFB400"/>
<path d="M28.1669 27.8883C28.2836 27.9648 28.4142 28.0177 28.5512 28.0438C28.6883 28.0698 28.8292 28.0687 28.9658 28.0403C29.1025 28.0119 29.2321 27.9569 29.3475 27.8784C29.4629 27.7999 29.5617 27.6995 29.6382 27.5828L38.0054 14.8328C38.16 14.5972 38.2147 14.3099 38.1575 14.034C38.1003 13.758 37.9358 13.5162 37.7002 13.3615C37.4646 13.2069 37.1773 13.1522 36.9013 13.2094C36.6254 13.2666 36.3835 13.4311 36.2289 13.6667L27.8617 26.4167C27.7851 26.5334 27.7322 26.664 27.7061 26.8011C27.68 26.9382 27.6811 27.0791 27.7095 27.2157C27.7378 27.3524 27.7928 27.4821 27.8713 27.5975C27.9498 27.7129 28.0502 27.8117 28.1669 27.8883Z" fill="#FFB400"/>
<path d="M39.7573 27.8162C39.9738 27.9966 40.2531 28.0836 40.5337 28.0581C40.8143 28.0326 41.0733 27.8966 41.2537 27.6801L46.5662 21.3051C46.7253 21.1142 46.8124 20.8735 46.8124 20.625C46.8124 20.3764 46.7253 20.1358 46.5662 19.9448L41.2537 13.5698C41.1647 13.4618 41.0551 13.3723 40.9314 13.3067C40.8077 13.2411 40.6723 13.2006 40.5328 13.1875C40.3934 13.1744 40.2528 13.189 40.119 13.2305C39.9853 13.272 39.861 13.3394 39.7534 13.4291C39.6459 13.5187 39.5571 13.6287 39.4921 13.7528C39.4272 13.8769 39.3875 14.0126 39.3752 14.1521C39.3629 14.2916 39.3783 14.4321 39.4205 14.5657C39.4627 14.6992 39.5309 14.823 39.6212 14.9301L44.3668 20.625L39.6212 26.3198C39.4408 26.5363 39.3538 26.8156 39.3793 27.0962C39.4049 27.3769 39.5408 27.6359 39.7573 27.8162Z" fill="#FFB400"/>
<path d="M24.7462 27.6801C24.8352 27.7882 24.9448 27.8776 25.0685 27.9432C25.1922 28.0088 25.3276 28.0494 25.4671 28.0624C25.6065 28.0755 25.7471 28.0609 25.8809 28.0195C26.0146 27.978 26.1389 27.9105 26.2465 27.8209C26.354 27.7312 26.4428 27.6212 26.5078 27.4971C26.5727 27.373 26.6124 27.2374 26.6247 27.0979C26.637 26.9584 26.6216 26.8178 26.5794 26.6843C26.5372 26.5508 26.469 26.4269 26.3787 26.3198L21.6331 20.625L26.3787 14.9301C26.469 14.823 26.5372 14.6992 26.5794 14.5657C26.6216 14.4321 26.637 14.2916 26.6247 14.1521C26.6124 14.0126 26.5727 13.8769 26.5078 13.7528C26.4428 13.6287 26.354 13.5187 26.2465 13.4291C26.1389 13.3394 26.0146 13.272 25.8809 13.2305C25.7471 13.189 25.6065 13.1744 25.4671 13.1875C25.3276 13.2006 25.1922 13.2411 25.0685 13.3067C24.9448 13.3723 24.8352 13.4618 24.7462 13.5698L19.4337 19.9448C19.2746 20.1358 19.1875 20.3764 19.1875 20.625C19.1875 20.8735 19.2746 21.1142 19.4337 21.3051L24.7462 27.6801Z" fill="#FFB400"/>
</svg>
