<svg width="24" height="24" viewBox="0 0 24 24" fill="none" xmlns="http://www.w3.org/2000/svg">
<circle cx="12" cy="12" r="12" fill="#FFB400"/>
<g clip-path="url(#clip0_1_83)">
<path d="M16.6603 11.7504C16.6124 10.8322 16.2931 9.94885 15.7427 9.21233C15.575 9.39295 15.3957 9.56247 15.206 9.71983C14.6232 10.2039 13.972 10.599 13.2734 10.8923C13.3709 11.0965 13.4601 11.2942 13.5389 11.4809V11.4827C13.5611 11.5348 13.5825 11.5873 13.603 11.6402C14.4862 11.541 15.4172 11.5772 16.3196 11.6991C16.4398 11.7154 16.5529 11.7329 16.6603 11.7504ZM11.1857 7.40458C11.7542 8.2056 12.2784 9.03712 12.756 9.89542C13.4694 9.61425 14.0592 9.25958 14.534 8.86466C14.6988 8.72883 14.854 8.58166 14.9984 8.42425C14.1589 7.71825 13.0969 7.33186 12 7.33341C11.727 7.33323 11.4546 7.35685 11.1857 7.404V7.40458ZM7.48094 10.8317C7.87832 10.8216 8.27523 10.7977 8.67094 10.7599C9.62739 10.6744 10.5757 10.514 11.5071 10.2804C11.0203 9.4347 10.4948 8.61191 9.9321 7.81466C9.33111 8.1124 8.80117 8.5359 8.37825 9.05646C7.95532 9.57701 7.6493 10.1824 7.48094 10.8317ZM8.37344 14.9372C8.59977 14.6064 8.89727 14.2342 9.29219 13.8294C10.1404 12.9602 11.1414 12.2836 12.2999 11.9102L12.336 11.8997C12.2398 11.6874 12.1494 11.4978 12.0584 11.3193C10.9874 11.6314 9.85919 11.8262 8.7351 11.9272C8.18677 11.9767 7.69502 11.9983 7.33335 12.0018C7.33232 13.0708 7.69986 14.1075 8.37402 14.9372H8.37344ZM13.7529 16.3255C13.528 15.1911 13.2096 14.0772 12.8009 12.9952C11.6331 13.4193 10.7027 14.0394 9.98344 14.7791C9.69317 15.0721 9.43558 15.3958 9.21519 15.7445C10.0195 16.3446 10.9965 16.6682 12 16.6667C12.6008 16.6676 13.1961 16.5521 13.7529 16.3267V16.3255ZM14.8455 15.6984C15.7563 14.9983 16.3767 13.9867 16.5879 12.8576C16.3896 12.808 16.1382 12.7584 15.8617 12.7199C15.2469 12.6314 14.6231 12.6249 14.0067 12.7007C14.3538 13.68 14.6341 14.6817 14.8455 15.699V15.6984ZM12 17.8334C8.77827 17.8334 6.16669 15.2218 6.16669 12.0001C6.16669 8.77833 8.77827 6.16675 12 6.16675C15.2218 6.16675 17.8334 8.77833 17.8334 12.0001C17.8334 15.2218 15.2218 17.8334 12 17.8334Z" fill="#2B2B2B"/>
</g>
<defs>
<clipPath id="clip0_1_83">
<rect width="14" height="14" fill="white" transform="translate(5 5)"/>
</clipPath>
</defs>
</svg>
