<svg width="24" height="24" viewBox="0 0 24 24" fill="none" xmlns="http://www.w3.org/2000/svg">
<circle cx="12" cy="12" r="12" fill="#FFB400"/>
<g clip-path="url(#clip0_1_55)">
<path d="M12 6.16675C13.5849 6.16675 13.7826 6.17258 14.4045 6.20175C15.0257 6.23091 15.4486 6.32833 15.8208 6.473C16.2058 6.62116 16.5301 6.82183 16.8545 7.14558C17.1511 7.43719 17.3806 7.78992 17.527 8.17925C17.6711 8.55083 17.7691 8.97433 17.7983 9.59558C17.8257 10.2174 17.8333 10.4152 17.8333 12.0001C17.8333 13.585 17.8275 13.7827 17.7983 14.4046C17.7691 15.0258 17.6711 15.4487 17.527 15.8209C17.381 16.2105 17.1514 16.5633 16.8545 16.8546C16.5628 17.1511 16.2101 17.3806 15.8208 17.5272C15.4492 17.6712 15.0257 17.7692 14.4045 17.7984C13.7826 17.8258 13.5849 17.8334 12 17.8334C10.415 17.8334 10.2173 17.8276 9.59546 17.7984C8.97421 17.7692 8.55129 17.6712 8.17913 17.5272C7.78965 17.381 7.43685 17.1515 7.14546 16.8546C6.84878 16.563 6.61925 16.2103 6.47288 15.8209C6.32821 15.4493 6.23079 15.0258 6.20163 14.4046C6.17421 13.7827 6.16663 13.585 6.16663 12.0001C6.16663 10.4152 6.17246 10.2174 6.20163 9.59558C6.23079 8.97375 6.32821 8.55141 6.47288 8.17925C6.61885 7.78969 6.84843 7.43685 7.14546 7.14558C7.43693 6.8488 7.78971 6.61926 8.17913 6.473C8.55129 6.32833 8.97363 6.23091 9.59546 6.20175C10.2173 6.17433 10.415 6.16675 12 6.16675ZM12 9.08342C11.2264 9.08342 10.4845 9.39071 9.93756 9.93769C9.39058 10.4847 9.08329 11.2265 9.08329 12.0001C9.08329 12.7736 9.39058 13.5155 9.93756 14.0625C10.4845 14.6095 11.2264 14.9167 12 14.9167C12.7735 14.9167 13.5154 14.6095 14.0624 14.0625C14.6093 13.5155 14.9166 12.7736 14.9166 12.0001C14.9166 11.2265 14.6093 10.4847 14.0624 9.93769C13.5154 9.39071 12.7735 9.08342 12 9.08342ZM15.7916 8.93758C15.7916 8.74419 15.7148 8.55873 15.5781 8.42198C15.4413 8.28524 15.2558 8.20841 15.0625 8.20841C14.8691 8.20841 14.6836 8.28524 14.5469 8.42198C14.4101 8.55873 14.3333 8.74419 14.3333 8.93758C14.3333 9.13097 14.4101 9.31644 14.5469 9.45318C14.6836 9.58993 14.8691 9.66675 15.0625 9.66675C15.2558 9.66675 15.4413 9.58993 15.5781 9.45318C15.7148 9.31644 15.7916 9.13097 15.7916 8.93758ZM12 10.2501C12.4641 10.2501 12.9092 10.4345 13.2374 10.7626C13.5656 11.0908 13.75 11.536 13.75 12.0001C13.75 12.4642 13.5656 12.9093 13.2374 13.2375C12.9092 13.5657 12.4641 13.7501 12 13.7501C11.5358 13.7501 11.0907 13.5657 10.7625 13.2375C10.4343 12.9093 10.25 12.4642 10.25 12.0001C10.25 11.536 10.4343 11.0908 10.7625 10.7626C11.0907 10.4345 11.5358 10.2501 12 10.2501Z" fill="#2B2B2B"/>
</g>
<defs>
<clipPath id="clip0_1_55">
<rect width="14" height="14" fill="white" transform="translate(5 5)"/>
</clipPath>
</defs>
</svg>
