<svg width="24" height="24" viewBox="0 0 24 24" fill="none" xmlns="http://www.w3.org/2000/svg">
<circle cx="12" cy="12" r="12" fill="#FFB400"/>
<g clip-path="url(#clip0_1_62)">
<path d="M17.9278 8.29929C17.4825 8.49628 17.0102 8.62565 16.5266 8.68312C17.0363 8.37829 17.4178 7.89855 17.6 7.33329C17.1216 7.61796 16.5972 7.81746 16.0506 7.92537C15.6835 7.53254 15.1968 7.27202 14.6664 7.1843C14.1359 7.09658 13.5913 7.18658 13.1172 7.4403C12.6431 7.69403 12.2662 8.09727 12.045 8.58734C11.8237 9.0774 11.7706 9.62683 11.8938 10.1502C10.9238 10.1016 9.97483 9.84951 9.10855 9.41034C8.24228 8.97118 7.47804 8.35474 6.86547 7.60104C6.64864 7.97347 6.53469 8.39684 6.5353 8.82779C6.5353 9.67362 6.9658 10.4209 7.6203 10.8584C7.23298 10.8462 6.85417 10.7416 6.51547 10.5533V10.5836C6.51559 11.1469 6.71052 11.6929 7.06721 12.1289C7.42391 12.5649 7.92042 12.8642 8.47255 12.9759C8.113 13.0733 7.73598 13.0877 7.37005 13.0179C7.52573 13.5028 7.82914 13.9268 8.23782 14.2307C8.64649 14.5346 9.13996 14.703 9.64914 14.7125C9.14308 15.1099 8.56366 15.4037 7.94398 15.5771C7.32431 15.7504 6.67654 15.7999 6.03772 15.7228C7.15288 16.44 8.45103 16.8207 9.77689 16.8195C14.2645 16.8195 16.7186 13.1019 16.7186 9.87779C16.7186 9.77279 16.7156 9.66662 16.711 9.56279C17.1886 9.21756 17.6009 8.78989 17.9284 8.29987L17.9278 8.29929Z" fill="#2B2B2B"/>
</g>
<defs>
<clipPath id="clip0_1_62">
<rect width="14" height="14" fill="white" transform="translate(5 5)"/>
</clipPath>
</defs>
</svg>
