<svg width="24" height="24" viewBox="0 0 24 24" fill="none" xmlns="http://www.w3.org/2000/svg">
<circle cx="12" cy="12" r="12" fill="#FFB400"/>
<g clip-path="url(#clip0_1_69)">
<path d="M9.0483 7.91676C9.04814 8.22618 8.92508 8.52287 8.70618 8.74155C8.48728 8.96023 8.19047 9.083 7.88105 9.08285C7.57163 9.08269 7.27495 8.95963 7.05626 8.74072C6.83758 8.52182 6.71481 8.22501 6.71497 7.9156C6.71512 7.60618 6.83819 7.30949 7.05709 7.09081C7.27599 6.87213 7.5728 6.74936 7.88222 6.74951C8.19164 6.74967 8.48832 6.87273 8.707 7.09163C8.92569 7.31053 9.04845 7.60734 9.0483 7.91676ZM9.0833 9.94676H6.74997V17.2501H9.0833V9.94676ZM12.77 9.94676H10.4483V17.2501H12.7466V13.4176C12.7466 11.2826 15.5291 11.0843 15.5291 13.4176V17.2501H17.8333V12.6243C17.8333 9.0251 13.715 9.15926 12.7466 10.9268L12.77 9.94676Z" fill="#2B2B2B"/>
</g>
<defs>
<clipPath id="clip0_1_69">
<rect width="14" height="14" fill="white" transform="translate(5 5)"/>
</clipPath>
</defs>
</svg>
